<svg width="1467" height="720" viewBox="0 0 1467 720" fill="none" xmlns="http://www.w3.org/2000/svg">
<path d="M1090.59 356.215C1095.17 362.079 1100.04 366.903 1105.68 370.951C1117.64 379.529 1131.64 381.578 1145.66 382.906C1161.23 384.376 1176.9 384.191 1192.54 384.161C1199.6 384.145 1199.71 384.18 1199.73 377.253C1199.84 337.21 1199.87 297.16 1200.01 257.114C1200.02 254.09 1198.73 252.816 1195.96 252.881C1188.46 253.069 1180.93 253.104 1173.45 253.672C1160.08 254.692 1146.78 256.343 1134.06 260.848C1127.25 263.262 1120.17 264.866 1113.68 268.274C1096.55 277.266 1085.81 291.388 1082.19 310.059C1078.98 326.553 1079.83 343.27 1084.67 359.588C1088.98 374.098 1097.09 385.849 1109.94 393.989C1126.86 404.696 1145.94 408.392 1165.45 409.854C1182.73 411.143 1200.08 410.618 1217.41 409.946C1223.66 409.704 1223.95 409.605 1223.95 403.514C1223.94 356.568 1223.93 309.617 1223.94 262.671C1223.95 251.1 1225.45 253.104 1212.91 252.739C1209.23 252.635 1208.05 253.817 1208.15 257.436C1208.37 265.868 1208.29 274.311 1208.29 282.75C1208.32 317.584 1208.29 352.415 1208.43 387.246C1208.44 391.107 1207.15 392.392 1203.35 392.227C1197.37 391.967 1191.38 392.178 1185.4 392.12C1166.73 391.951 1148.09 392.519 1129.49 389.196C1111.97 386.06 1100.67 375.418 1091.41 361.476C1090.46 360.041 1090.27 358.375 1090.59 356.215ZM1339.75 197.572C1326.24 205.996 1311.96 210.609 1296.1 209.415C1289.04 208.882 1288.09 209.722 1288.19 216.903C1288.3 225.2 1288.98 225.714 1297.29 225.856C1312.7 226.125 1327.55 223.86 1341.3 216.5C1343.84 215.133 1346.14 213.299 1348.58 211.726C1350.16 210.701 1351.8 209.672 1353.5 211.549C1354.99 213.192 1355.38 214.911 1354.11 216.964C1344.58 232.438 1331.89 243.586 1313.73 248.053C1306.76 249.769 1299.79 250.022 1292.78 250.375C1289.17 250.555 1288.02 252.19 1288.04 255.587C1288.19 301.781 1288.5 347.979 1288.16 394.173C1288.1 401.25 1290.19 405.878 1295.07 410.468C1304.57 419.387 1313.63 428.77 1322.87 437.973C1323.95 439.04 1325.07 440.091 1325.55 441.964C1322.6 443.204 1319.59 442.129 1316.7 442.137C1266.05 442.24 1215.39 442.528 1164.74 442.083C1145.16 441.906 1125.68 439.681 1106.41 435.582C1090.91 432.281 1075.89 427.922 1062.2 419.84C1040.17 406.841 1023.57 389.307 1015.3 364.45C1008.51 344.041 1007.96 323.387 1013.49 303.009C1020.94 275.608 1038.05 255.571 1063.66 242.845C1082.37 233.543 1102.4 229.859 1122.92 227.64C1153.8 224.298 1184.76 224.881 1215.72 224.912C1224.22 224.92 1224.2 225.012 1224.18 216.323C1224.04 175.513 1223.91 134.703 1223.78 93.8932C1223.77 92.2391 1223.78 90.5851 1223.78 88.5972C1207.59 88.7737 1191.83 86.6361 1176.28 90.8154C1160.24 95.1251 1150.34 105.226 1145.73 121.225C1143.75 128.056 1142.92 135.003 1141.58 141.895C1140.9 145.38 1139.36 146.55 1135.99 146.074C1132.49 145.579 1133.01 143.089 1133.27 140.84C1134.72 128.617 1137.38 116.727 1143.12 105.694C1149.33 93.7512 1159.53 87.1389 1172.1 83.3933C1187.39 78.8341 1203.07 79.947 1218.67 79.9086C1221.23 79.9009 1224.59 80.5419 1225.41 77.583C1226.4 73.9986 1226.35 70.0458 1225.5 66.2925C1225.31 65.3945 1224.22 65.0568 1223.24 64.9915C1200.45 63.4488 1177.66 61.4877 1155.39 69.1324C1135.55 75.9443 1125.21 90.6312 1120.58 110.207C1118.92 117.226 1117.58 124.303 1117.65 131.568C1117.67 133.337 1117.43 135.321 1115.49 135.666C1112.83 136.131 1112.27 133.556 1111.73 131.813C1108.65 121.855 1104.93 112.126 1101.06 102.459C1092.05 79.9623 1082.04 57.9417 1070.16 36.8037C1069.94 36.4238 1069.9 35.9479 1069.58 34.8235H1447.81C1442.88 43.6233 1438.38 51.74 1433.78 59.7953C1423.91 77.0803 1413.82 94.2194 1407.78 113.4C1406.19 118.458 1403.94 123.328 1402.71 128.536C1402.41 129.772 1401.92 130.958 1400.47 131.157C1398.59 131.422 1398.19 129.868 1397.77 128.594C1395.33 121.198 1393.49 113.634 1390.79 106.293C1382.19 82.9059 1367.22 67.4016 1341.5 63.7366C1327.58 61.7487 1313.7 62.3474 1299.78 62.735C1297.48 62.8002 1295.14 63.1187 1292.89 62.8156C1288.65 62.2437 1287.66 64.0858 1287.68 68.0118C1287.99 109.597 1288.16 151.182 1288.38 192.767C1288.42 201.421 1288.45 201.31 1297.13 201.448C1308.99 201.636 1320.17 198.724 1331.01 194.256C1337.12 191.743 1337.72 191.846 1339.75 197.572Z" fill="black"/>
<path d="M374.496 83.7625C357.41 66.1514 344.934 61.7917 319.97 59.4201C304.22 57.9272 288.409 58.6525 272.624 58.3916C269.163 58.3379 268.261 59.8653 268.272 63.1618C268.376 102.448 268.41 141.735 268.269 181.017C268.257 184.855 269.259 186.171 273.1 186.072C298.295 185.411 323.286 183.573 346.818 173.407C366.256 165.006 378.886 150.73 382.996 129.7C386.105 113.808 384.973 98.0733 380.413 82.4846C375.643 66.1706 365.865 53.8593 351.024 45.9805C332.934 36.3748 313.077 33.4082 292.903 32.8594C278.354 32.4603 263.778 32.5063 249.222 33.3468C246.152 33.5272 244.862 34.4521 244.87 37.7026C244.97 83.8892 244.978 130.08 245.004 176.27C245.012 187.196 244.997 187.062 255.973 186.267C259.254 186.033 260.39 185.204 260.374 181.689C260.232 139.49 260.305 97.2866 260.198 55.0873C260.186 51.169 261.226 49.6915 265.448 49.7952C278.304 50.1175 291.156 50.1482 304.017 50.6778C318.588 51.2765 333.191 51.3839 346.987 56.5802C360.039 61.4963 368.348 71.67 374.496 83.7625ZM182.638 393.088C182.638 380.354 182.63 368.419 182.642 356.484C182.684 318.119 182.642 279.749 182.895 241.384C182.926 236.737 181.429 235.885 177.177 235.75C163.699 235.321 151.016 238.325 138.796 243.648C136.34 244.719 134.774 244.619 133.466 242.24C132.057 239.672 133.815 238.69 135.634 237.673C148.053 230.719 161.22 226.981 175.592 227.964C182.354 228.424 182.78 227.872 182.772 221.336C182.765 212.283 182.653 212.364 173.616 212.129C158.963 211.746 144.937 213.975 131.781 220.795C129.041 222.215 126.55 223.942 124.075 225.734C122.693 226.732 121.377 227.998 119.665 226.302C118.238 224.886 117.447 223.197 118.526 221.332C125.545 209.255 134.782 199.496 147.892 193.966C157.62 189.863 167.782 187.971 178.355 188.624C181.656 188.823 182.865 187.703 182.853 184.164C182.746 137.191 182.761 90.2214 182.868 43.2519C182.876 40.2086 181.364 38.4816 179.503 36.6012C168.289 25.2992 157.11 13.9588 145.854 2.5647C146.529 0.887634 148.126 1.59763 149.373 1.59378C192.662 1.57077 235.947 1.50552 279.233 1.61682C303.909 1.67822 328.536 2.87939 352.882 7.23901C378.84 11.8864 403.117 20.3869 422.693 39.1072C441.387 56.9793 451.537 78.6814 452.351 104.678C452.765 117.96 451.86 131.016 447.301 143.63C441.943 158.452 433.47 171.016 421.584 181.535C408.145 193.424 392.433 200.563 375.398 204.968C360.684 208.779 345.579 210.307 330.412 211.381C303.33 213.3 276.213 213.2 249.095 213.2C245.688 213.2 244.59 214.417 244.601 217.801C244.69 250.955 244.218 284.121 244.832 317.263C245.116 332.594 245.047 347.922 245.219 363.25C245.258 366.738 246.198 368.085 249.963 368.043C261.76 367.901 273.595 369.244 285.331 367.249C297.7 365.142 309.109 361.151 316.47 349.952C321.348 342.526 323.923 334.245 325.389 325.571C325.976 322.102 326.275 318.575 326.931 315.121C327.545 311.894 330.109 311.836 332.692 312.024C335.443 312.228 335.401 314.4 335.14 316.108C333.118 329.432 330.75 342.588 323.37 354.37C316.808 364.846 307.01 369.993 295.696 373.255C280.795 377.549 265.525 375.611 250.4 375.853C246.67 375.907 245.185 376.617 245.219 380.615C245.304 390.77 245.158 390.559 255.359 391.319C269.466 392.374 283.554 392.604 297.581 390.67C319.978 387.581 337.216 377.25 344.896 354.842C348.016 345.746 350.011 336.279 350.314 326.565C350.372 324.777 349.854 322.444 352.371 322.11C354.805 321.788 355.085 324.132 355.657 325.825C360.776 341.03 366.31 356.096 372.861 370.73C379.293 385.086 385.698 399.489 393.381 413.255C394.425 415.12 395.377 416.981 395.918 419.576H30.9304C31.8169 414.721 34.6069 411.033 36.7791 407.134C45.5674 391.38 55.2614 376.091 62.4686 359.52C66.6018 350.021 69.7103 340.089 73.2563 330.338C73.7897 328.88 73.0376 326.519 75.4822 326.4C77.992 326.281 78.0764 328.684 78.6176 330.326C80.9163 337.296 82.7508 344.392 85.3297 351.303C93.6229 373.527 107.999 388.172 132.315 391.91C145.777 393.978 159.228 392.904 172.691 393.084C175.742 393.122 178.793 393.088 182.638 393.088Z" fill="black"/>
<path d="M619.009 323.415C623.334 333.063 627.843 342.017 632.836 350.728C638.213 360.115 644.86 368.474 653.049 375.57C659.489 381.142 667.352 383.905 675.358 385.901C687.573 388.952 700.153 389.723 712.695 390.375C727.731 391.151 742.713 390.226 757.603 388.196C775.844 385.709 793.336 381.249 807.551 368.343C815.867 360.794 821.896 351.665 827.365 342.047C832.208 333.539 837.017 325.008 841.833 316.481C842.274 315.698 842.493 314.711 844.846 314.631C851.538 354.861 873.72 386.772 903.063 414.534C902.668 414.937 902.273 415.332 901.874 415.731H564.195C588.227 387.75 605.585 356.865 619.009 323.415Z" fill="black"/>
<path d="M605.957 128.962C598.323 88.2862 577.435 55.309 546.023 28.6217C546.346 28.2686 546.664 27.9194 546.987 27.5702H886.423C862.284 55.5661 845.029 86.4326 832.196 120.247C829.053 117.99 828.907 114.981 827.863 112.648C821.155 97.6042 813.418 83.3548 801.637 71.4772C793.827 63.5984 784.302 59.5036 773.917 57.1395C756.056 53.0793 737.785 52.0086 719.617 52.73C700.536 53.4861 681.26 55.025 663.261 62.2053C650.059 67.4744 639.229 76.3741 631.301 88.2786C623.245 100.383 616.061 113.028 609.23 125.861C608.678 126.897 608.447 128.225 605.957 128.962Z" fill="black"/>
<path d="M748.25 606.126C750.05 595.53 751.697 586.216 753.197 576.871C755.983 559.498 758.65 542.102 761.444 524.732C761.751 522.836 762.051 520.553 764.879 520.71C767.546 520.86 768.548 522.821 768.912 525.016C770.417 534.111 769.734 543.387 770.835 552.49C772.623 567.25 771.756 582.163 773.997 596.904C775.026 603.677 774.408 610.689 774.83 617.574C775.486 628.4 776.377 639.21 777.198 650.021C777.256 650.762 777.524 651.48 777.689 652.178C779.078 652.354 779.036 651.353 779.063 650.712C779.485 640.001 781.32 629.382 781.189 618.64C781.101 611.264 783.327 604.073 782.812 596.654C782.701 595.027 783.116 593.135 785.215 592.694C787.506 592.206 788.511 593.68 789.198 595.576C792.668 605.193 796.175 614.799 799.641 624.42C800.255 626.124 800.332 628.365 802.4 628.868C804.676 629.417 805.409 627.049 806.491 625.732C808.798 622.935 811.81 620.763 813.426 617.297C814.531 614.922 816.22 616.368 817.505 617.524C819.938 619.707 821.228 622.724 822.724 625.487C824.617 628.975 827.245 631.896 829.31 635.223C831.087 638.082 833.608 638.926 837.054 638.923C913.958 638.815 990.865 638.815 1067.77 638.842C1132.7 638.865 1197.62 638.976 1262.55 638.999C1310.13 639.022 1357.71 639.199 1405.29 638.838C1423.71 638.7 1442.12 639.26 1460.54 639.061C1461.91 639.045 1463.29 639.199 1464.66 639.341C1466.3 639.51 1466.98 640.392 1467 642.108C1467.02 643.731 1466.53 644.963 1464.95 645.197C1462.84 645.512 1460.68 645.558 1458.54 645.562C1400.83 645.589 1343.12 645.612 1285.41 645.608C1226.62 645.604 1167.83 645.573 1109.05 645.558C1020.01 645.543 930.982 645.355 841.955 645.738C831.923 645.781 825.964 642.181 821.527 633.891C819.919 630.883 818.948 626.508 815.414 625.686C811.173 624.7 811.261 630.203 808.656 632.091C807.431 632.978 806.376 634.164 805.432 635.361C800.8 641.256 799.073 640.634 796.152 633.132C794.441 628.734 793.263 624.124 791.812 619.623C791.248 617.869 790.569 616.165 788.88 615.163C787.813 615.309 787.663 616.203 787.648 616.879C787.414 626.995 786.266 637.05 785.53 647.128C784.194 665.295 783.024 683.478 781.796 701.657C781.573 705.023 781.308 708.389 781.235 711.758C781.193 713.819 780.564 715.646 779.827 717.515C779.32 718.793 778.407 718.969 777.29 719C776.085 719.031 775.237 718.639 775.003 717.296C774.792 716.095 774.235 714.928 774.193 713.731C773.963 707.775 773.264 701.776 773.188 695.912C773.076 687.024 772.693 678.136 771.879 669.352C770.639 655.931 770.735 642.453 769.377 629.052C768.54 620.82 768.302 612.531 767.769 604.268C767.101 593.891 766.387 583.518 765.754 573.137C765.604 570.7 765.681 568.24 765.723 565.788C765.769 562.725 765.808 559.678 764.1 556.627C762.101 557.709 761.82 559.728 761.694 561.313C760.504 576.303 756.463 590.856 755.005 605.811C754.398 612.032 752.767 618.149 751.662 624.324C751.171 627.064 749.521 628.507 746.055 629.29C741.722 616.733 740.74 603.363 736.611 590.621C733.667 594.187 733.798 598.673 732.662 602.633C729.714 612.926 727.151 623.342 724.791 633.792C723.697 638.642 721.079 640.976 716.259 641.022C710.127 641.079 703.994 641.087 697.858 641.087C609.898 641.099 521.93 641.881 433.982 640.887C351.103 639.947 268.228 640.699 185.35 640.289C148.515 640.105 111.677 640.477 74.8433 640.504C52.1318 640.519 29.4165 640.366 6.70508 640.277C5.48085 640.273 4.25282 640.201 3.0286 640.17C1.01765 640.12 -0.0300456 639.299 0.000655878 637.08C0.0351951 634.847 1.21339 634.072 3.15526 634.041C10.3663 633.922 17.5773 633.765 24.7883 633.769C62.3938 633.799 99.9955 633.934 137.597 633.926C218.335 633.914 299.079 633.12 379.809 633.964C490.933 635.131 602.054 634.329 713.178 634.916C717.188 634.939 718.957 633.496 719.813 629.704C723.451 613.559 727.231 597.449 731.714 581.515C732.209 579.761 732.224 577.876 732.562 576.073C732.93 574.116 733.195 571.867 735.655 571.494C738.334 571.084 739.051 573.452 739.516 575.255C741.542 583.111 743.403 591.013 745.153 598.934C745.618 601.045 746.009 603.075 748.25 606.126Z" fill="black"/>
<path d="M726.186 221.701V235.397C733.516 235.397 740.409 235.846 747.213 235.267C753.4 234.737 756.769 238.088 760.772 242.866H727.464C725.503 244.704 726.797 246.719 725.361 248.503C718.807 248.503 711.933 248.676 705.079 248.43C701.955 248.319 699.845 249.324 698.075 251.784C686.355 268.068 674.589 284.313 662.815 300.561C662.581 300.891 662.128 301.064 661.161 301.732V172.321C667.934 180.879 674.094 188.582 680.169 196.349C686.113 203.948 692.012 211.588 697.857 219.268C699.403 221.302 701.257 222.065 703.782 222.015C711.296 221.87 718.814 221.896 726.332 221.85L726.186 221.701Z" fill="black"/>
<path d="M726.333 221.851V207.886C718.224 207.886 710.472 207.87 702.72 207.889C696.729 207.909 694.07 206.37 690.297 200.302H725.259C726.713 198.506 725.919 196.829 726.713 194.772C732.658 194.772 738.898 194.5 745.103 194.876C748.887 195.102 751.025 193.544 753.067 190.697C764.576 174.643 776.2 158.675 787.809 142.691C788.043 142.368 788.515 142.223 789.448 141.628V271.119C782.483 262.208 776.212 254.195 769.949 246.182C764.1 238.702 758.248 231.219 752.414 223.731C751.336 222.346 750.127 221.275 748.223 221.306C740.878 221.452 733.529 221.571 726.187 221.697C726.187 221.701 726.333 221.851 726.333 221.851Z" fill="black"/>
<path d="M1024.93 408.286C1017.76 404.748 1012.32 400.288 1007.78 394.858C996.865 381.783 990.249 366.705 986.565 350.053C982.827 333.183 982.666 316.166 985.08 299.396C990.414 262.37 1009.81 235.037 1044.26 219.199C1059.24 212.315 1075.15 208.845 1091.32 206.013C1124.29 200.241 1157.53 200.778 1190.76 200.832C1199.99 200.848 1199.97 200.963 1199.97 191.929C1199.97 172.74 1200.05 153.556 1199.94 134.367C1199.91 130.641 1201.02 128.914 1204.95 129.263C1207.25 129.47 1208.11 130.303 1208.1 132.679C1208.04 157.236 1208.02 181.793 1208.1 206.351C1208.11 209.835 1206.29 210.599 1203.46 210.288C1180.52 207.771 1157.5 208.707 1134.52 208.849C1121.24 208.934 1108.03 210.668 1094.86 212.821C1080.88 215.112 1067.28 218.478 1054.25 223.912C1028.89 234.481 1009.56 251.167 999.379 277.521C990.241 301.169 989.819 325.292 993.714 349.865C996.999 370.546 1008.62 386.791 1021.5 402.38C1022.78 403.915 1024.15 405.362 1024.93 408.286Z" fill="black"/>
<path d="M438.084 36.235C445.314 38.7065 450.921 43.3501 455.553 49.0529C465.766 61.6367 472.439 75.9512 475.36 91.9084C480.019 117.387 479.336 142.57 469.826 166.943C461.287 188.814 445.794 204.644 425.289 215.666C408.507 224.692 390.175 228.53 371.577 231.689C338.868 237.242 305.918 236.29 272.983 235.994C269.303 235.96 267.921 236.555 267.944 240.703C268.136 276.766 268.048 312.836 268.132 348.899C268.14 351.689 267.672 353.205 264.44 353.224C261.155 353.247 260.322 351.935 260.33 348.803C260.422 309.974 260.422 271.14 260.345 232.314C260.342 228.649 261.313 226.523 265.323 227.379C271.529 228.695 277.88 228.415 284.085 228.423C306.16 228.438 328.261 229.559 350.312 227.471C373.45 225.276 396.157 221.05 417.146 210.75C435.563 201.712 450.388 188.507 459.606 169.687C467.001 154.589 470.647 138.659 470.62 121.885C470.601 111.784 470.785 101.725 468.682 91.6781C465.731 77.5976 459.736 65.0714 451.351 53.5813C447.061 47.702 442.513 42.0107 438.084 36.235Z" fill="black"/>
<path d="M863.669 536.838C873.601 536.523 883.276 537.628 892.824 535.959C900.434 534.635 903.835 529.968 903.497 522.385C903.171 515.051 898.984 510.672 891.412 509.92C882.252 509.015 873.072 509.671 863.669 509.506V536.838ZM863.715 547.633V578.174C873.463 578.174 882.942 578.427 892.41 578.101C900.968 577.805 906.682 572.302 907.2 564.684C907.807 555.723 903.355 549.967 894.141 548.424C884.136 546.747 874.027 548.136 863.715 547.633ZM903.739 541.117C908.137 543.158 912.009 544.97 914.833 548.366C926.707 562.612 917.804 584.652 898.784 588.24C892.537 589.414 886.258 589.092 879.98 589.119C870.646 589.165 861.321 589.13 851.738 589.13V498.733C861.121 498.733 870.558 498.672 879.991 498.76C885.494 498.81 891.005 498.376 896.493 499.535C906.517 501.662 912.907 507.529 915.071 517.53C917.159 527.163 913.417 534.808 903.739 541.117Z" fill="black"/>
<path d="M726.048 0.0917435V7.04564C724.467 7.95901 722.902 7.60977 721.401 7.60977C660.489 7.62128 599.577 7.62896 538.669 7.53302C535.588 7.52918 533.477 8.17392 532.019 11.0944C529.835 15.4694 527.425 19.7445 524.915 23.943C523.265 26.6984 524.931 28.1836 526.634 29.8185C538.612 41.2893 549.753 53.5277 559.466 66.9788C569.244 80.522 577.791 94.8059 583.897 110.437C584.207 111.231 584.975 112.026 584.131 113.077C578.693 112.375 575.012 109.942 572.46 104.527C559.101 76.1471 539.475 52.3841 516.825 31.0005C513.882 28.222 513.632 26.2149 515.801 22.8416C519.846 16.5554 523.418 9.96228 527.057 3.42286C528.384 1.03581 529.969 -0.0042038 532.875 -0.000366211C595.628 0.0994186 658.378 0.0840683 721.132 0.0917435H726.048Z" fill="black"/>
<path d="M42.2226 578.618H97.0056V588.907H30.1799V498.886H94.9333C95.578 502.275 95.3247 505.702 95.0944 509.397H42.1881V536.96H91.4371V547.602H42.2226V578.618Z" fill="black"/>
<path d="M726.357 443.218V436.272C728.034 435.24 729.768 435.696 731.399 435.696C791.398 435.666 851.396 435.635 911.395 435.781C915.11 435.785 917.389 434.771 919.024 431.521C921.085 427.422 923.28 423.377 925.652 419.451C927.298 416.723 925.759 415.184 924.036 413.549C912.009 402.117 900.895 389.851 891.193 376.393C881.334 362.711 872.649 348.32 866.555 332.501C866.287 331.802 865.791 331.139 866.494 330.183C871.824 330.95 875.528 333.291 878.08 338.706C891.385 366.929 910.857 390.627 933.377 411.926C936.524 414.896 937.08 417.053 934.601 420.802C930.641 426.781 927.348 433.202 923.81 439.453C922.463 441.837 920.997 443.303 917.75 443.299C855.295 443.176 792.841 443.214 730.39 443.218H726.357Z" fill="black"/>
<path d="M1044.12 588.931H1033.16V523.867H1043V531.339C1056.56 517.208 1075.64 520.206 1081.47 532.908C1087.95 524.155 1096.39 520.39 1107.18 522.631C1115.25 524.304 1119.99 529.259 1121.4 537.402C1122.47 543.508 1122.07 549.652 1122.11 555.777C1122.16 566.669 1122.12 577.556 1122.12 588.685C1118.44 589.668 1114.82 588.82 1110.73 589.253C1110.73 580.48 1110.77 572.068 1110.72 563.66C1110.68 557.22 1110.69 550.773 1110.4 544.341C1110.06 536.808 1107.29 533.131 1101.68 532.129C1094.78 530.901 1087.5 534.57 1084.88 540.645C1083.45 543.938 1083.14 547.438 1083.15 550.992C1083.16 563.556 1083.16 576.117 1083.16 588.912H1072.29C1071.25 587.599 1071.79 586.003 1071.78 584.541C1071.72 572.721 1071.75 560.901 1071.75 549.08C1071.75 547.703 1071.74 546.317 1071.67 544.94C1071.29 537.395 1068.6 533.25 1063.42 532.172C1056.72 530.782 1049.77 534.021 1046.71 539.966C1044.46 544.337 1044.18 549.1 1044.15 553.851C1044.06 565.479 1044.12 577.103 1044.12 588.931Z" fill="black"/>
<path d="M190.151 555.079C190.067 559.526 190.558 563.602 191.889 567.566C194.419 575.096 200.424 579.724 207.835 579.793C215.257 579.866 221.804 575.384 224.161 568.042C226.954 559.35 227.158 550.546 223.443 542.027C220.365 534.958 213.998 531.185 206.649 531.626C200.048 532.022 194.292 536.727 191.909 543.638C190.604 547.442 189.986 551.341 190.151 555.079ZM226.187 530.537V524.197C229.388 523.042 232.584 523.817 235.919 523.636C236.069 524.243 236.33 524.795 236.326 525.356C236.295 546.225 236.445 567.098 236.123 587.964C235.9 602.551 229.956 610.763 217.652 614.283C209.336 616.662 200.962 616.524 192.857 613.289C184.398 609.912 180.833 604.316 180.91 594.979C182.629 594.162 184.429 594.803 186.179 594.968C187.856 595.121 189.51 595.478 191.195 595.754C195.109 605.126 202.647 608.446 213.546 605.571C222.437 603.226 226.344 595.056 224.725 581.539C217.99 588.743 209.693 590.389 200.712 588.693C189.529 586.575 183.439 578.773 180.211 568.553C176.896 558.057 177.778 547.61 182.226 537.586C189.437 521.334 211.707 515.98 226.187 530.537Z" fill="black"/>
<path d="M1251.33 556.823C1251.61 552.195 1251.17 547.456 1249.33 543.012C1246.71 536.679 1242.32 532.304 1235.1 531.664C1228.06 531.042 1222.55 533.993 1219.68 540.187C1214.82 550.668 1214.63 561.601 1219.81 572.059C1222.87 578.23 1228.21 581.577 1235.5 580.997C1242.39 580.444 1246.62 576.407 1249.31 570.47C1251.24 566.203 1251.56 561.617 1251.33 556.823ZM1250.67 530.324V498.94H1261.5V588.945H1251.86C1250.63 587.011 1252 584.739 1250.84 582.382C1246.49 587.314 1241.27 590.35 1234.7 590.614C1228.21 590.868 1222.29 589.267 1217.04 585.357C1210.41 580.414 1206.88 573.521 1205.43 565.658C1203.93 557.445 1204.51 549.286 1206.88 541.147C1212.46 521.927 1236.68 515.576 1250.67 530.324Z" fill="black"/>
<path d="M1183.33 549.351C1183.11 542.405 1180.44 536.733 1173.96 533.506C1167.29 530.186 1160.56 530.685 1154.57 535.133C1149.75 538.713 1147.23 543.687 1147.27 549.916C1159.3 549.916 1170.76 549.919 1182.22 549.904C1182.48 549.904 1182.75 549.647 1183.33 549.351ZM1147.26 559.406C1147.01 570.04 1153.11 578.74 1161.8 580.713C1171.65 582.947 1178.44 579.055 1183.51 568.164C1187.3 567.669 1190.97 569.073 1194.76 569.138C1193.3 581.239 1182.03 590.292 1168.27 590.591C1147.54 591.044 1135.23 579.001 1135.14 558.262C1135.12 553.65 1135.26 549.071 1136.41 544.585C1140.25 529.683 1152.27 521.194 1168.31 522.035C1182.1 522.756 1192.97 533.268 1195 547.92C1195.5 551.547 1195.85 555.2 1195.21 559.406H1147.26Z" fill="black"/>
<path d="M505.053 556.734C496.683 559.774 487.706 559.808 479.256 562.318C474.121 563.842 471.768 567.288 471.999 572.074C472.202 576.437 475.019 579.618 479.858 580.969C495.497 585.344 508.115 573.401 505.053 556.734ZM520.365 588.94C505.72 589.286 509.136 590.226 506.308 582.013C504.554 582.17 503.506 583.61 502.213 584.504C493.179 590.748 483.316 592.125 472.893 589.232C465.778 587.259 461.265 582.339 460.182 575.052C459.012 567.165 461.629 560.568 468.579 556.043C475.311 551.672 483.139 551.715 490.65 550.536C495.612 549.754 500.566 549.013 505.229 547.439C506.4 536.778 502.566 531.966 492.323 531.647C479.663 531.248 476.876 533.286 472.701 543.805C469.251 543.398 465.693 542.98 461.859 542.531C463.31 533.965 467.443 527.783 475.46 524.751C484.452 521.347 493.766 521.051 503.023 523.312C512.475 525.622 516.831 531.613 516.984 541.725C517.115 550.156 517.095 558.592 517.13 567.027C517.164 574.353 516.662 581.741 520.365 588.94Z" fill="black"/>
<path d="M646.281 556.495C637.623 559.937 628.601 559.718 620.161 562.316C615.153 563.859 612.686 567.382 612.924 572.083C613.146 576.458 615.998 579.686 620.776 580.975C636.188 585.128 647.398 574.774 646.281 556.495ZM613.806 543.957C609.819 543.42 606.396 542.955 602.704 542.453C604.327 534.677 607.582 528.579 614.885 525.448C625.008 521.107 635.474 520.758 645.878 523.94C654.102 526.453 657.74 532.156 657.89 541.478C658.039 550.984 658.051 560.497 658.028 570.007C658.009 576.439 658.224 582.814 661.121 588.839C649.658 589.84 649.658 589.84 646.956 581.681C641.196 586.233 635.067 589.848 627.687 590.37C619.939 590.919 612.306 590.788 606.223 584.817C597.899 576.639 599.442 562.478 609.27 556.153C616.013 551.813 623.807 551.782 631.314 550.531C635.386 549.856 639.446 549.092 643.502 548.347C645.778 547.933 646.668 546.759 646.622 544.241C646.496 537.068 643.364 533.192 636.245 531.983C632.423 531.339 628.608 531.465 624.805 532.052C618.2 533.073 615.656 538.078 613.806 543.957Z" fill="black"/>
<path d="M1412.55 556.589C1403.98 559.816 1395.13 559.759 1386.82 562.215C1381.47 563.796 1378.95 567.311 1379.23 572.181C1379.5 576.683 1382.47 579.83 1387.64 581.081C1403.02 584.815 1413.95 574.395 1412.55 556.589ZM1427.49 588.948C1412.79 589.316 1416.34 590.145 1413.54 582.052C1411.47 582.24 1410.26 584.001 1408.71 585.011C1399.81 590.821 1390.23 592.041 1380.14 589.228C1373.01 587.236 1368.49 582.37 1367.42 575.079C1366.28 567.215 1368.82 560.58 1375.78 556.063C1382.52 551.699 1390.34 551.784 1397.84 550.51C1401.91 549.815 1405.96 549.017 1410.02 548.276C1412.15 547.885 1412.93 546.787 1412.93 544.485C1412.95 537.335 1409.76 533.229 1402.79 532.031C1401.59 531.82 1400.36 531.667 1399.15 531.617C1387.69 531.16 1384.65 533.052 1379.95 543.813C1376.52 543.406 1372.97 542.988 1369.05 542.523C1370.45 535.201 1373.37 529.164 1380.17 525.964C1390.75 520.971 1401.81 520.549 1412.81 524.21C1420.75 526.85 1424.08 532.434 1424.21 541.71C1424.33 551.066 1424.37 560.426 1424.34 569.783C1424.32 576.238 1424.47 582.643 1427.49 588.948Z" fill="black"/>
<path d="M261.308 549.685H297.071C296.883 538.655 290.14 531.74 279.809 531.648C269.259 531.548 261.684 538.839 261.308 549.685ZM309.137 559.59H261.043C261.112 567.495 263.699 573.95 270.184 578.183C275.922 581.921 282.181 582.355 288.444 579.07C291.898 577.262 294.515 574.399 295.977 571.007C297.267 568.006 298.952 567.695 301.596 568.205C303.979 568.662 306.397 568.946 308.799 569.303C306.915 581.204 296.994 589.539 283.536 590.533C262.801 592.068 249.284 579.419 249.081 558.592C248.985 548.51 250.259 538.897 257.481 531.248C266.431 521.777 277.61 519.954 289.599 523.627C301.223 527.192 306.903 536.122 308.884 547.662C309.528 551.412 309.828 555.226 309.137 559.59Z" fill="black"/>
<path d="M404.77 588.961H394.036V498.94H404.543V530.874C410.58 524.967 416.778 521.982 424.35 522.028C438.307 522.108 446.409 529.112 446.866 543.047C447.364 558.198 446.977 573.38 446.977 588.846H435.92C435.92 581.869 435.963 574.873 435.905 567.877C435.851 560.516 435.924 553.144 435.525 545.798C435.049 537.087 430.866 532.436 423.801 532.033C414.702 531.515 407.506 536.388 405.76 544.344C404.501 550.085 404.781 555.938 404.774 561.756C404.762 570.655 404.77 579.555 404.77 588.961Z" fill="black"/>
<path d="M1008.53 554.92C1008.44 553.703 1008.41 551.086 1007.99 548.526C1006.43 538.817 999.539 532.082 990.847 531.594C981.506 531.069 974.241 536.346 971.693 545.913C969.766 553.132 969.763 560.462 971.977 567.653C974.702 576.53 981.272 581.193 990.452 581.001C998.469 580.836 1004.74 575.624 1007.18 567.181C1008.22 563.62 1008.5 559.982 1008.53 554.92ZM1020.15 556.313C1020.28 565.546 1019.01 574.346 1012.23 581.385C1003.6 590.338 989.17 593.209 976.974 588.411C965.745 583.987 958.921 573.018 958.718 559.13C958.568 549.328 959.339 539.715 966.22 531.948C974.548 522.538 988.74 519.406 1001.2 523.915C1012.24 527.903 1019.57 538.475 1020.14 551.263C1020.22 552.94 1020.15 554.632 1020.15 556.313Z" fill="black"/>
<path d="M333.701 523.901V530.682C334.814 531.438 335.14 530.452 335.589 529.995C343.721 521.683 355.913 519.66 366.394 524.599C373.916 528.138 376.714 534.593 376.883 542.103C377.232 557.565 376.986 573.042 376.986 588.834H365.918C365.918 582.97 365.957 577.057 365.911 571.139C365.845 563.018 365.803 554.898 365.6 546.781C365.37 537.663 361.213 532.547 353.86 532.033C344.109 531.346 337.174 536.538 335.589 545.534C334.33 552.691 334.879 559.902 334.787 567.09C334.695 574.27 334.768 581.455 334.768 588.888H323.957V523.901H333.701Z" fill="black"/>
<path d="M166.081 588.979H155.013C155.013 580.755 155.055 572.68 155.001 564.602C154.955 558.324 154.932 552.03 154.641 545.755C154.265 537.677 150.327 532.887 143.753 532.074C135.41 531.041 128.057 535.079 125.582 542.113C124.507 545.164 124.004 548.338 123.997 551.569C123.974 563.953 123.989 576.345 123.989 588.929H112.99V523.819H122.347C123.356 526.014 122.366 528.52 123.083 531.418C127.289 527.112 131.71 523.742 137.628 522.583C154.848 519.202 166.042 528.056 166.077 545.41C166.1 559.801 166.081 574.192 166.081 588.979Z" fill="black"/>
<path d="M1350.41 565.272C1354.24 564.892 1357.48 565.917 1360.79 566.239C1360.93 579.03 1349.43 590.16 1335.82 590.566C1316.77 591.127 1304.92 579.652 1304.12 559.75C1303.86 553.134 1304.32 546.571 1306.58 540.258C1310.43 529.486 1320 522.582 1331.78 522.067C1344.81 521.499 1353.61 526.243 1358.2 536.332C1359.09 538.289 1359.87 540.281 1359.96 542.741C1356.61 544.284 1352.96 543.961 1349.48 544.372C1345.11 534.118 1341.38 531.236 1333.16 531.616C1325.77 531.961 1319.82 536.463 1317.58 543.766C1315.1 551.867 1315.01 560.08 1317.38 568.227C1319.95 577.088 1325.86 581.256 1335.07 580.999C1342.79 580.784 1347.74 576.19 1349.86 567.256C1350 566.673 1350.18 566.105 1350.41 565.272Z" fill="black"/>
<path d="M1382.62 103.342C1377.45 100.123 1372.45 97.3633 1367.08 95.2641C1355.56 90.7624 1343.83 87.7959 1331.34 88.3984C1326.6 88.6287 1321.84 88.4445 1317.09 88.4406C1313.74 88.4368 1312.07 89.8606 1312.12 93.4488C1312.35 112.138 1311.86 130.839 1312.96 149.514C1313.17 152.994 1312.77 155.074 1308.54 155.105C1304.53 155.132 1303.77 153.478 1303.8 149.794C1303.97 128.176 1303.99 106.555 1303.8 84.9368C1303.76 80.558 1304.95 79.0114 1309.52 79.0882C1324.82 79.3568 1340.14 78.643 1355.34 81.4522C1366.89 83.5898 1375.65 89.473 1381.77 99.4241C1382.17 100.069 1382.53 100.763 1382.77 101.481C1382.89 101.85 1382.72 102.322 1382.62 103.342Z" fill="black"/>
<path d="M91.9082 353.4C98.2442 356.082 102.692 359.352 107.85 361.325C119.843 365.918 132.066 368.735 144.968 368.263C148.641 368.129 152.329 368.071 156.001 368.206C159.739 368.344 161.324 366.617 161.309 363.006C161.251 350.284 161.332 337.558 161.113 324.84C161.067 322.142 161.367 320.733 164.418 320.883C166.985 321.014 169.464 320.845 169.456 324.529C169.43 340.467 169.456 356.409 169.453 372.35C169.453 375.225 168.451 376.898 165.101 376.806C151.177 376.418 137.22 377.32 123.339 375.455C111.446 373.851 101.288 369.307 94.7212 358.646C93.9307 357.364 93.2898 355.99 91.9082 353.4Z" fill="black"/>
<path d="M1419.65 149.152C1416.93 148.918 1413.18 142.985 1414.12 140.629C1418.34 129.975 1422.36 119.23 1426.86 108.692C1435.4 88.6704 1444.52 68.9293 1458.32 51.8055C1459.56 50.2704 1460.96 48.0369 1462.98 50.493C1464.66 52.5155 1468.94 53.8088 1465.87 57.846C1451.18 77.165 1441.5 99.1511 1432.21 121.333C1428.85 129.373 1425.73 137.52 1422.5 145.622C1421.89 147.157 1421.59 148.945 1419.65 149.152Z" fill="black"/>
<path d="M809.335 284.382C805.263 283.373 803.01 281.388 803.018 276.764C803.099 234.611 803.026 192.458 802.991 150.304C802.991 148.95 802.588 146.935 804.538 147.227C807.052 147.603 809.462 148.931 810.21 151.747C810.513 152.899 810.275 154.188 810.275 155.42C810.302 197.262 810.329 239.109 810.352 280.955C810.352 282.006 810.578 283.112 809.335 284.382Z" fill="black"/>
<path d="M641.14 158.93C645.642 159.897 647.591 162.207 647.58 166.954C647.464 208.958 647.541 250.957 647.58 292.965C647.58 294.312 648.017 296.35 646.079 296.073C643.585 295.72 641.144 294.45 640.392 291.602C640.123 290.601 640.33 289.469 640.33 288.394C640.307 246.39 640.284 204.387 640.265 162.38C640.265 161.332 640.058 160.234 641.14 158.93Z" fill="black"/>
<path d="M63.2485 315.027C62.0473 317.575 61.1147 319.808 60.2704 322.096C53.0517 341.549 45.2958 360.795 35.4099 379.07C30.7663 387.659 25.8656 396.136 19.3453 403.528C17.9177 405.143 16.4747 406.912 14.6518 404.452C13.228 402.526 9.07182 401.724 12.2264 397.564C23.1792 383.119 31.1385 366.947 38.5875 350.502C44.2519 338.003 49.4712 325.342 54.1685 312.451C54.7096 310.97 55.2546 308.487 57.2809 309.182C60.0325 310.122 61.6021 312.793 63.2485 315.027Z" fill="black"/>
<path d="M566.215 535.803C564.633 535.255 563.521 534.832 562.381 534.483C555.603 532.43 550.092 535.086 547.767 541.748C545.875 547.163 545.664 552.839 545.668 558.522C545.675 568.596 545.668 578.666 545.668 588.94H534.838V523.868H544.516V532.273C548.131 528.013 550.376 523.465 555.573 522.394C560.688 521.331 565.186 522.794 569.929 525.568C568.736 528.853 567.565 532.085 566.215 535.803Z" fill="black"/>
<path d="M895.798 42.7801C900.998 47.8842 900.971 48.3486 897.091 53.6254C880.762 75.815 865.358 98.584 853.664 123.648C852.002 127.217 850.571 130.897 849.028 134.524C844.204 132.329 842.969 129.708 844.807 125.432C857.429 96.0242 874.403 69.2563 894.209 44.2193C894.578 43.7549 895.092 43.4133 895.798 42.7801Z" fill="black"/>
<path d="M601.624 308.596C606.877 311.7 607.695 313.631 605.519 318.601C592.881 347.456 576.322 373.932 556.753 398.566C556.208 399.253 555.479 399.795 554.861 400.374C549.803 396.026 549.65 394.901 553.157 390.166C568.834 369.02 583.352 347.138 595.215 323.59C597.609 318.842 599.421 313.8 601.624 308.596Z" fill="black"/>
<path d="M631.522 336.128C642.064 343.6 651.413 351.467 661.909 357.73C668.203 361.479 674.754 363.79 682.042 364.734C694.875 366.395 707.727 366.019 720.587 366.085C722.264 366.096 723.941 366.088 725.826 366.088C726.417 369.166 726.294 371.979 725.903 375.118C714.589 375.449 703.517 375.272 692.415 374.067C682.629 373 673.027 371.45 663.878 367.773C651.804 362.918 643.008 354.05 635.429 343.86C633.917 341.827 631.089 340.349 631.522 336.128Z" fill="black"/>
<path d="M726.525 77.2248C726.126 73.9474 726.007 71.2304 726.667 68.0988C736.261 68.0336 745.802 67.8992 755.377 68.9162C766.959 70.1481 778.43 71.6372 789.141 76.6185C800.608 81.949 808.94 90.8064 816.108 100.861C817.095 102.247 818.265 103.651 819.006 105.171C817.889 107.024 817.202 106.295 815.89 105.225C806.153 97.2652 796.037 89.8278 785.111 83.5455C779.815 80.5022 774.074 79.3279 768.099 78.5373C756.356 76.9792 744.582 77.1711 732.8 77.2248C730.82 77.2325 728.839 77.2248 726.525 77.2248Z" fill="black"/>
<path d="M586.791 589.021H576.341V523.784H586.791V589.021Z" fill="black"/>
<path d="M934.609 523.753H945.113V588.897H934.609V523.753Z" fill="black"/>
<path d="M1289.65 588.998H1279.09V523.872H1289.65V588.998Z" fill="black"/>
<path d="M1156.51 515.369C1159.02 509.935 1161.42 504.862 1163.7 499.738C1164.42 498.111 1165.66 498.08 1167.09 498.092C1170.91 498.126 1174.74 498.107 1179.62 498.107C1174.93 504.067 1171.02 509.866 1166.2 514.767C1164.15 516.854 1160.12 515.273 1156.51 515.369Z" fill="black"/>
<path d="M576.251 511.45V498.901H586.92V510.94C583.55 511.915 580.104 510.99 576.251 511.45Z" fill="black"/>
<path d="M1289.53 511.204H1279.11V498.847H1289.53V511.204Z" fill="black"/>
<path d="M945.143 511.169H934.669V499.038H945.143V511.169Z" fill="black"/>
</svg>
